<svg width="28" height="29" viewBox="0 0 28 29" fill="none" xmlns="http://www.w3.org/2000/svg">
<g filter="url(#filter0_d_840_14216)">
<rect x="2" y="2" width="24" height="24" rx="4" fill="#DDE9FF" shape-rendering="crispEdges"/>
<path d="M11.8672 12.8281L13.8672 11.4922C14.1953 11.2734 14.4271 11.0599 14.5625 10.8516C14.6979 10.6432 14.7656 10.388 14.7656 10.0859C14.7656 9.82031 14.6641 9.57552 14.4609 9.35156C14.2578 9.1224 13.9714 9.00781 13.6016 9.00781C13.3411 9.00781 13.1224 9.06771 12.9453 9.1875C12.7682 9.30729 12.6328 9.46615 12.5391 9.66406C12.4505 9.86198 12.4062 10.0781 12.4062 10.3125C12.4062 10.5469 12.4661 10.7891 12.5859 11.0391C12.7109 11.2839 12.8776 11.5417 13.0859 11.8125C13.2943 12.0781 13.5286 12.3646 13.7891 12.6719L19.1562 19H16.9141L12.5234 13.8594C12.1484 13.401 11.8151 12.9792 11.5234 12.5938C11.237 12.2083 11.013 11.8359 10.8516 11.4766C10.6901 11.1172 10.6094 10.7448 10.6094 10.3594C10.6094 9.76042 10.7318 9.2474 10.9766 8.82031C11.2266 8.38802 11.5755 8.05469 12.0234 7.82031C12.4766 7.58594 13.0052 7.46875 13.6094 7.46875C14.1875 7.46875 14.6875 7.58594 15.1094 7.82031C15.5312 8.04948 15.8568 8.35677 16.0859 8.74219C16.3151 9.1276 16.4297 9.54948 16.4297 10.0078C16.4297 10.362 16.3646 10.6875 16.2344 10.9844C16.1042 11.2812 15.9245 11.5547 15.6953 11.8047C15.4661 12.0495 15.2005 12.2812 14.8984 12.5L12.4922 14.2422C12.2318 14.4557 12.0365 14.6641 11.9062 14.8672C11.7812 15.0651 11.6979 15.2474 11.6562 15.4141C11.6198 15.5807 11.6016 15.7318 11.6016 15.8672C11.6016 16.1953 11.6719 16.4922 11.8125 16.7578C11.9531 17.0182 12.1589 17.2266 12.4297 17.3828C12.7005 17.5391 13.0286 17.6172 13.4141 17.6172C13.8464 17.6172 14.263 17.5208 14.6641 17.3281C15.0703 17.1302 15.4349 16.8542 15.7578 16.5C16.0807 16.1406 16.3359 15.7135 16.5234 15.2188C16.7109 14.7188 16.8047 14.1667 16.8047 13.5625H18.4922C18.4922 14.1198 18.4375 14.6484 18.3281 15.1484C18.2188 15.6484 18.0443 16.112 17.8047 16.5391C17.5703 16.9609 17.263 17.3411 16.8828 17.6797C16.8411 17.7109 16.7969 17.7552 16.75 17.8125C16.7083 17.8646 16.6667 17.9089 16.625 17.9453C16.1719 18.3516 15.6667 18.6562 15.1094 18.8594C14.5573 19.0573 13.9661 19.1562 13.3359 19.1562C12.5755 19.1562 11.9193 19.0182 11.3672 18.7422C10.8151 18.4661 10.3906 18.0859 10.0938 17.6016C9.79688 17.1172 9.64844 16.5625 9.64844 15.9375C9.64844 15.474 9.74219 15.0677 9.92969 14.7188C10.1172 14.3698 10.3776 14.0443 10.7109 13.7422C11.0495 13.4401 11.4349 13.1354 11.8672 12.8281Z" fill="#4E8AFF"/>
</g>
<defs>
<filter id="filter0_d_840_14216" x="0" y="0.5" width="28" height="28" filterUnits="userSpaceOnUse" color-interpolation-filters="sRGB">
<feFlood flood-opacity="0" result="BackgroundImageFix"/>
<feColorMatrix in="SourceAlpha" type="matrix" values="0 0 0 0 0 0 0 0 0 0 0 0 0 0 0 0 0 0 127 0" result="hardAlpha"/>
<feOffset dy="0.5"/>
<feGaussianBlur stdDeviation="1"/>
<feComposite in2="hardAlpha" operator="out"/>
<feColorMatrix type="matrix" values="0 0 0 0 0 0 0 0 0 0 0 0 0 0 0 0 0 0 0.1 0"/>
<feBlend mode="normal" in2="BackgroundImageFix" result="effect1_dropShadow_840_14216"/>
<feBlend mode="normal" in="SourceGraphic" in2="effect1_dropShadow_840_14216" result="shape"/>
</filter>
</defs>
</svg>
