<svg  viewBox="0 0 12 12" fill="none" xmlns="http://www.w3.org/2000/svg">
<path d="M2.72953 7.94677L2.36725 6.86627H0.980149L0.62531 7.94677H0L1.35732 4.03992H2.00248L3.3598 7.94677H2.72953ZM2.21092 6.31803L1.87097 5.25882C1.84615 5.18785 1.81141 5.07607 1.76675 4.92349C1.72374 4.7709 1.69396 4.65913 1.67742 4.58816C1.63275 4.80639 1.56741 5.04502 1.48139 5.30406L1.15385 6.31803H2.21092Z" fill="currentColor"/>
<path d="M5.93052 6.89022C5.93052 7.23619 5.8139 7.50765 5.58065 7.70459C5.34739 7.90153 5.02564 8 4.61538 8C4.20513 8 3.86931 7.93169 3.60794 7.79508V7.19361C3.77337 7.277 3.94872 7.34265 4.134 7.39055C4.32093 7.43846 4.49462 7.46241 4.65509 7.46241C4.88999 7.46241 5.06286 7.4145 5.1737 7.3187C5.28619 7.22289 5.34243 7.09426 5.34243 6.9328C5.34243 6.78731 5.29115 6.66401 5.18859 6.56287C5.08602 6.46174 4.87428 6.34198 4.55335 6.20359C4.2225 6.05988 3.98925 5.89576 3.8536 5.71124C3.71795 5.52672 3.65012 5.30495 3.65012 5.04591C3.65012 4.72122 3.75765 4.46574 3.9727 4.27944C4.18776 4.09315 4.47643 4 4.83871 4C5.1861 4 5.53184 4.08161 5.87593 4.24484L5.68735 4.76381C5.36476 4.61832 5.07692 4.54558 4.82382 4.54558C4.63193 4.54558 4.48635 4.59082 4.3871 4.6813C4.28784 4.77002 4.23821 4.888 4.23821 5.03526C4.23821 5.13639 4.25806 5.22333 4.29777 5.29607C4.33747 5.36704 4.40281 5.43446 4.4938 5.49834C4.58478 5.56221 4.74855 5.64648 4.98511 5.75116C5.25145 5.87004 5.44665 5.98093 5.57072 6.08383C5.69479 6.18674 5.78577 6.30295 5.84367 6.43247C5.90157 6.56199 5.93052 6.71457 5.93052 6.89022Z" fill="currentColor"/>
<path d="M8.17618 4.54558C7.8354 4.54558 7.56741 4.67509 7.37221 4.93413C7.17701 5.19317 7.0794 5.55068 7.0794 6.00665C7.0794 6.48392 7.17287 6.84498 7.3598 7.08982C7.54839 7.33466 7.82051 7.45709 8.17618 7.45709C8.33002 7.45709 8.47891 7.44112 8.62283 7.40918C8.76675 7.37547 8.91646 7.33289 9.07196 7.28144V7.82701C8.78743 7.94234 8.46485 8 8.10422 8C7.5732 8 7.16543 7.8279 6.88089 7.4837C6.59636 7.13772 6.45409 6.6436 6.45409 6.00133C6.45409 5.59681 6.52275 5.24285 6.66005 4.93945C6.79901 4.63606 6.99917 4.40364 7.26055 4.24218C7.52192 4.08073 7.82878 4 8.18114 4C8.5517 4 8.89413 4.08339 9.20844 4.25017L8.99504 4.77977C8.87262 4.71768 8.74276 4.66356 8.60546 4.61743C8.46981 4.56953 8.32672 4.54558 8.17618 4.54558Z" fill="currentColor"/>
<path d="M9.8536 7.94677V4.05589H10.4467V7.94677H9.8536Z" fill="currentColor"/>
<path d="M11.4069 7.94677V4.05589H12V7.94677H11.4069Z" fill="currentColor"/>
</svg>
