<svg width="12" height="4" viewBox="0 0 12 4" fill="none" xmlns="http://www.w3.org/2000/svg">
<path d="M2.72953 3.94677L2.36725 2.86627H0.980149L0.62531 3.94677H0L1.35732 0.0399202H2.00248L3.3598 3.94677H2.72953ZM2.21092 2.31803L1.87097 1.25882C1.84615 1.18785 1.81141 1.07607 1.76675 0.923486C1.72374 0.770903 1.69396 0.659126 1.67742 0.588157C1.63275 0.806387 1.56741 1.04502 1.48139 1.30406L1.15385 2.31803H2.21092Z" fill="#5C5757"/>
<path d="M5.93052 2.89022C5.93052 3.23619 5.8139 3.50765 5.58065 3.70459C5.34739 3.90153 5.02564 4 4.61538 4C4.20513 4 3.86931 3.93169 3.60794 3.79508V3.19361C3.77337 3.277 3.94872 3.34265 4.134 3.39055C4.32093 3.43846 4.49462 3.46241 4.65509 3.46241C4.88999 3.46241 5.06286 3.4145 5.1737 3.3187C5.28619 3.22289 5.34243 3.09426 5.34243 2.9328C5.34243 2.78731 5.29115 2.66401 5.18859 2.56287C5.08602 2.46174 4.87428 2.34198 4.55335 2.20359C4.2225 2.05988 3.98925 1.89576 3.8536 1.71124C3.71795 1.52672 3.65012 1.30495 3.65012 1.04591C3.65012 0.721224 3.75765 0.465735 3.9727 0.279441C4.18776 0.093147 4.47643 0 4.83871 0C5.1861 0 5.53184 0.0816145 5.87593 0.244844L5.68735 0.763806C5.36476 0.618319 5.07692 0.545575 4.82382 0.545575C4.63193 0.545575 4.48635 0.590818 4.3871 0.681304C4.28784 0.770016 4.23821 0.888002 4.23821 1.03526C4.23821 1.13639 4.25806 1.22333 4.29777 1.29607C4.33747 1.36704 4.40281 1.43446 4.4938 1.49834C4.58478 1.56221 4.74855 1.64648 4.98511 1.75116C5.25145 1.87004 5.44665 1.98093 5.57072 2.08383C5.69479 2.18674 5.78577 2.30295 5.84367 2.43247C5.90157 2.56199 5.93052 2.71457 5.93052 2.89022Z" fill="#5C5757"/>
<path d="M8.17618 0.545575C7.8354 0.545575 7.56741 0.675094 7.37221 0.934132C7.17701 1.19317 7.0794 1.55068 7.0794 2.00665C7.0794 2.48392 7.17287 2.84498 7.3598 3.08982C7.54839 3.33466 7.82051 3.45709 8.17618 3.45709C8.33002 3.45709 8.47891 3.44112 8.62283 3.40918C8.76675 3.37547 8.91646 3.33289 9.07196 3.28144V3.82701C8.78743 3.94234 8.46485 4 8.10422 4C7.5732 4 7.16543 3.8279 6.88089 3.4837C6.59636 3.13772 6.45409 2.6436 6.45409 2.00133C6.45409 1.59681 6.52275 1.24285 6.66005 0.939454C6.79901 0.636061 6.99917 0.403637 7.26055 0.242182C7.52192 0.0807274 7.82878 0 8.18114 0C8.5517 0 8.89413 0.0833888 9.20844 0.250166L8.99504 0.779774C8.87262 0.717676 8.74276 0.663562 8.60546 0.617432C8.46981 0.569528 8.32672 0.545575 8.17618 0.545575Z" fill="#5C5757"/>
<path d="M9.8536 3.94677V0.0558882H10.4467V3.94677H9.8536Z" fill="#5C5757"/>
<path d="M11.4069 3.94677V0.0558882H12V3.94677H11.4069Z" fill="#5C5757"/>
</svg>
