<svg width="12" height="13" viewBox="0 0 12 13" fill="none" xmlns="http://www.w3.org/2000/svg">
<path d="M2.72953 8.44677L2.36725 7.36627H0.980149L0.62531 8.44677H0L1.35732 4.53992H2.00248L3.3598 8.44677H2.72953ZM2.21092 6.81803L1.87097 5.75882C1.84615 5.68785 1.81141 5.57607 1.76675 5.42349C1.72374 5.2709 1.69396 5.15913 1.67742 5.08816C1.63275 5.30639 1.56741 5.54502 1.48139 5.80406L1.15385 6.81803H2.21092Z" fill="#1481B8"/>
<path d="M5.93052 7.39022C5.93052 7.73619 5.8139 8.00765 5.58065 8.20459C5.34739 8.40153 5.02564 8.5 4.61538 8.5C4.20513 8.5 3.86931 8.43169 3.60794 8.29508V7.69361C3.77337 7.777 3.94872 7.84265 4.134 7.89055C4.32093 7.93846 4.49462 7.96241 4.65509 7.96241C4.88999 7.96241 5.06286 7.9145 5.1737 7.8187C5.28619 7.72289 5.34243 7.59426 5.34243 7.4328C5.34243 7.28731 5.29115 7.16401 5.18859 7.06287C5.08602 6.96174 4.87428 6.84198 4.55335 6.70359C4.2225 6.55988 3.98925 6.39576 3.8536 6.21124C3.71795 6.02672 3.65012 5.80495 3.65012 5.54591C3.65012 5.22122 3.75765 4.96574 3.9727 4.77944C4.18776 4.59315 4.47643 4.5 4.83871 4.5C5.1861 4.5 5.53184 4.58161 5.87593 4.74484L5.68735 5.26381C5.36476 5.11832 5.07692 5.04558 4.82382 5.04558C4.63193 5.04558 4.48635 5.09082 4.3871 5.1813C4.28784 5.27002 4.23821 5.388 4.23821 5.53526C4.23821 5.63639 4.25806 5.72333 4.29777 5.79607C4.33747 5.86704 4.40281 5.93446 4.4938 5.99834C4.58478 6.06221 4.74855 6.14648 4.98511 6.25116C5.25145 6.37004 5.44665 6.48093 5.57072 6.58383C5.69479 6.68674 5.78577 6.80295 5.84367 6.93247C5.90157 7.06199 5.93052 7.21457 5.93052 7.39022Z" fill="#1481B8"/>
<path d="M8.17618 5.04558C7.8354 5.04558 7.56741 5.17509 7.37221 5.43413C7.17701 5.69317 7.0794 6.05068 7.0794 6.50665C7.0794 6.98392 7.17287 7.34498 7.3598 7.58982C7.54839 7.83466 7.82051 7.95709 8.17618 7.95709C8.33002 7.95709 8.47891 7.94112 8.62283 7.90918C8.76675 7.87547 8.91646 7.83289 9.07196 7.78144V8.32701C8.78743 8.44234 8.46485 8.5 8.10422 8.5C7.5732 8.5 7.16543 8.3279 6.88089 7.9837C6.59636 7.63772 6.45409 7.1436 6.45409 6.50133C6.45409 6.09681 6.52275 5.74285 6.66005 5.43945C6.79901 5.13606 6.99917 4.90364 7.26055 4.74218C7.52192 4.58073 7.82878 4.5 8.18114 4.5C8.5517 4.5 8.89413 4.58339 9.20844 4.75017L8.99504 5.27977C8.87262 5.21768 8.74276 5.16356 8.60546 5.11743C8.46981 5.06953 8.32672 5.04558 8.17618 5.04558Z" fill="#1481B8"/>
<path d="M9.8536 8.44677V4.55589H10.4467V8.44677H9.8536Z" fill="#1481B8"/>
<path d="M11.4069 8.44677V4.55589H12V8.44677H11.4069Z" fill="#1481B8"/>
</svg>