<svg width="12" height="5" viewBox="0 0 12 5" fill="none" xmlns="http://www.w3.org/2000/svg">
    <path d="M2.72953 4.44677L2.36725 3.36627H0.980149L0.62531 4.44677H0L1.35732 0.53992H2.00248L3.3598 4.44677H2.72953ZM2.21092 2.81803L1.87097 1.75882C1.84615 1.68785 1.81141 1.57607 1.76675 1.42349C1.72374 1.2709 1.69396 1.15913 1.67742 1.08816C1.63275 1.30639 1.56741 1.54502 1.48139 1.80406L1.15385 2.81803H2.21092Z" fill="#1481B8"/>
    <path d="M5.93052 3.39022C5.93052 3.73619 5.8139 4.00765 5.58065 4.20459C5.34739 4.40153 5.02564 4.5 4.61538 4.5C4.20513 4.5 3.86931 4.43169 3.60794 4.29508V3.69361C3.77337 3.777 3.94872 3.84265 4.134 3.89055C4.32093 3.93846 4.49462 3.96241 4.65509 3.96241C4.88999 3.96241 5.06286 3.9145 5.1737 3.8187C5.28619 3.72289 5.34243 3.59426 5.34243 3.4328C5.34243 3.28731 5.29115 3.16401 5.18859 3.06287C5.08602 2.96174 4.87428 2.84198 4.55335 2.70359C4.2225 2.55988 3.98925 2.39576 3.8536 2.21124C3.71795 2.02672 3.65012 1.80495 3.65012 1.54591C3.65012 1.22122 3.75765 0.965735 3.9727 0.779441C4.18776 0.593147 4.47643 0.5 4.83871 0.5C5.1861 0.5 5.53184 0.581615 5.87593 0.744844L5.68735 1.26381C5.36476 1.11832 5.07692 1.04558 4.82382 1.04558C4.63193 1.04558 4.48635 1.09082 4.3871 1.1813C4.28784 1.27002 4.23821 1.388 4.23821 1.53526C4.23821 1.63639 4.25806 1.72333 4.29777 1.79607C4.33747 1.86704 4.40281 1.93446 4.4938 1.99834C4.58478 2.06221 4.74855 2.14648 4.98511 2.25116C5.25145 2.37004 5.44665 2.48093 5.57072 2.58383C5.69479 2.68674 5.78577 2.80295 5.84367 2.93247C5.90157 3.06199 5.93052 3.21457 5.93052 3.39022Z" fill="#1481B8"/>
    <path d="M8.17618 1.04558C7.8354 1.04558 7.56741 1.17509 7.37221 1.43413C7.17701 1.69317 7.0794 2.05068 7.0794 2.50665C7.0794 2.98392 7.17287 3.34498 7.3598 3.58982C7.54839 3.83466 7.82051 3.95709 8.17618 3.95709C8.33002 3.95709 8.47891 3.94112 8.62283 3.90918C8.76675 3.87547 8.91646 3.83289 9.07196 3.78144V4.32701C8.78743 4.44234 8.46485 4.5 8.10422 4.5C7.5732 4.5 7.16543 4.3279 6.88089 3.9837C6.59636 3.63772 6.45409 3.1436 6.45409 2.50133C6.45409 2.09681 6.52275 1.74285 6.66005 1.43945C6.79901 1.13606 6.99917 0.903637 7.26055 0.742182C7.52192 0.580727 7.82878 0.5 8.18114 0.5C8.5517 0.5 8.89413 0.583389 9.20844 0.750166L8.99504 1.27977C8.87262 1.21768 8.74276 1.16356 8.60546 1.11743C8.46981 1.06953 8.32672 1.04558 8.17618 1.04558Z" fill="#1481B8"/>
    <path d="M9.8536 4.44677V0.555888H10.4467V4.44677H9.8536Z" fill="#1481B8"/>
    <path d="M11.4069 4.44677V0.555888H12V4.44677H11.4069Z" fill="#1481B8"/>
</svg>
