<svg width="15" height="15" viewBox="0 0 15 15" fill="none" xmlns="http://www.w3.org/2000/svg">
<path d="M3.22266 10L2.79492 8.81055H1.15723L0.738281 10H0L1.60254 5.69922H2.36426L3.9668 10H3.22266ZM2.61035 8.20703L2.20898 7.04102C2.17969 6.96289 2.13867 6.83984 2.08594 6.67188C2.03516 6.50391 2 6.38086 1.98047 6.30273C1.92773 6.54297 1.85059 6.80566 1.74902 7.09082L1.3623 8.20703H2.61035Z" fill="#808080"/>
<path d="M7.00195 8.83691C7.00195 9.21777 6.86426 9.5166 6.58887 9.7334C6.31348 9.9502 5.93359 10.0586 5.44922 10.0586C4.96484 10.0586 4.56836 9.9834 4.25977 9.83301V9.1709C4.45508 9.2627 4.66211 9.33496 4.88086 9.3877C5.10156 9.44043 5.30664 9.4668 5.49609 9.4668C5.77344 9.4668 5.97754 9.41406 6.1084 9.30859C6.24121 9.20312 6.30762 9.06152 6.30762 8.88379C6.30762 8.72363 6.24707 8.58789 6.12598 8.47656C6.00488 8.36523 5.75488 8.2334 5.37598 8.08105C4.98535 7.92285 4.70996 7.74219 4.5498 7.53906C4.38965 7.33594 4.30957 7.0918 4.30957 6.80664C4.30957 6.44922 4.43652 6.16797 4.69043 5.96289C4.94434 5.75781 5.28516 5.65527 5.71289 5.65527C6.12305 5.65527 6.53125 5.74512 6.9375 5.9248L6.71484 6.49609C6.33398 6.33594 5.99414 6.25586 5.69531 6.25586C5.46875 6.25586 5.29688 6.30566 5.17969 6.40527C5.0625 6.50293 5.00391 6.63281 5.00391 6.79492C5.00391 6.90625 5.02734 7.00195 5.07422 7.08203C5.12109 7.16016 5.19824 7.23438 5.30566 7.30469C5.41309 7.375 5.60645 7.46777 5.88574 7.58301C6.2002 7.71387 6.43066 7.83594 6.57715 7.94922C6.72363 8.0625 6.83105 8.19043 6.89941 8.33301C6.96777 8.47559 7.00195 8.64355 7.00195 8.83691Z" fill="#808080"/>
<path d="M9.65332 6.25586C9.25098 6.25586 8.93457 6.39844 8.7041 6.68359C8.47363 6.96875 8.3584 7.3623 8.3584 7.86426C8.3584 8.38965 8.46875 8.78711 8.68945 9.05664C8.91211 9.32617 9.2334 9.46094 9.65332 9.46094C9.83496 9.46094 10.0107 9.44336 10.1807 9.4082C10.3506 9.37109 10.5273 9.32422 10.7109 9.26758V9.86816C10.375 9.99512 9.99414 10.0586 9.56836 10.0586C8.94141 10.0586 8.45996 9.86914 8.12402 9.49023C7.78809 9.10938 7.62012 8.56543 7.62012 7.8584C7.62012 7.41309 7.70117 7.02344 7.86328 6.68945C8.02734 6.35547 8.26367 6.09961 8.57227 5.92188C8.88086 5.74414 9.24316 5.65527 9.65918 5.65527C10.0967 5.65527 10.501 5.74707 10.8721 5.93066L10.6201 6.51367C10.4756 6.44531 10.3223 6.38574 10.1602 6.33496C10 6.28223 9.83105 6.25586 9.65332 6.25586Z" fill="#808080"/>
<path d="M11.6338 10V5.7168H12.334V10H11.6338Z" fill="#808080"/>
<path d="M13.4678 10V5.7168H14.168V10H13.4678Z" fill="#808080"/>
</svg>
