<svg width="13" height="14" viewBox="0 0 13 14" fill="none" xmlns="http://www.w3.org/2000/svg">
<path d="M8.88536 4.17142L5.1147 7.94275C5.05102 8.00425 5.00023 8.07782 4.96529 8.15915C4.93036 8.24049 4.91196 8.32797 4.9112 8.41649C4.91043 8.50501 4.92729 8.59279 4.96081 8.67472C4.99433 8.75665 5.04384 8.83109 5.10643 8.89368C5.16903 8.95628 5.24346 9.00578 5.32539 9.0393C5.40732 9.07282 5.49511 9.08969 5.58363 9.08892C5.67215 9.08815 5.75963 9.06976 5.84096 9.03482C5.9223 8.99988 5.99586 8.94909 6.05736 8.88542L9.8287 5.11475C10.2038 4.73965 10.4145 4.2309 10.4145 3.70042C10.4145 3.16994 10.2038 2.66119 9.8287 2.28609C9.45359 1.91098 8.94484 1.70025 8.41436 1.70025C7.88388 1.70025 7.37513 1.91098 7.00003 2.28609L3.2287 6.05742C2.91275 6.36551 2.66111 6.73326 2.4884 7.13935C2.31569 7.54544 2.22533 7.98179 2.22256 8.42307C2.2198 8.86436 2.30468 9.3018 2.47229 9.71003C2.63991 10.1182 2.88691 10.4891 3.19897 10.8011C3.51104 11.1132 3.88195 11.3601 4.2902 11.5277C4.69845 11.6952 5.1359 11.7801 5.57719 11.7772C6.01847 11.7744 6.4548 11.684 6.86087 11.5112C7.26694 11.3384 7.63465 11.0867 7.9427 10.7708L11.714 7.00009L12.6567 7.94275L8.88536 11.7141C8.452 12.1474 7.93752 12.4912 7.37131 12.7257C6.80509 12.9603 6.19823 13.081 5.58536 13.081C4.9725 13.081 4.36563 12.9603 3.79941 12.7257C3.2332 12.4912 2.71872 12.1474 2.28536 11.7141C1.852 11.2807 1.50824 10.7663 1.2737 10.2C1.03917 9.63382 0.918457 9.02695 0.918457 8.41409C0.918457 7.80122 1.03917 7.19436 1.2737 6.62814C1.50824 6.06193 1.852 5.54745 2.28536 5.11409L6.05736 1.34342C6.68604 0.736228 7.52804 0.400246 8.40203 0.407841C9.27602 0.415436 10.1121 0.765999 10.7301 1.38403C11.3481 2.00205 11.6987 2.83809 11.7063 3.71208C11.7139 4.58607 11.3779 5.42808 10.7707 6.05675L7.00003 9.82942C6.81425 10.0152 6.59371 10.1625 6.351 10.263C6.10829 10.3635 5.84816 10.4152 5.58546 10.4152C5.32276 10.4151 5.06264 10.3634 4.81996 10.2628C4.57727 10.1622 4.35676 10.0149 4.17103 9.82909C3.9853 9.64331 3.83797 9.42277 3.73747 9.18006C3.63697 8.93735 3.58526 8.67722 3.58529 8.41452C3.58532 8.15182 3.63709 7.8917 3.73765 7.64901C3.83821 7.40633 3.98559 7.18582 4.17136 7.00009L7.9427 3.22875L8.88536 4.17142Z" fill="#F26C0D"/>
</svg>
