<svg width="7" height="11" viewBox="0 0 7 11" fill="none" xmlns="http://www.w3.org/2000/svg">
<path fill-rule="evenodd" clip-rule="evenodd" d="M1.53846 1.47744C1.11363 1.47744 0.769231 1.81407 0.769231 2.22932V3.73308C0.769231 4.14833 1.11363 4.48496 1.53846 4.48496C1.9633 4.48496 2.30769 4.14833 2.30769 3.73308V2.22932C2.30769 1.81407 1.9633 1.47744 1.53846 1.47744ZM1.53846 0.725564C0.688793 0.725564 0 1.39882 0 2.22932V3.73308C0 4.56359 0.688793 5.23684 1.53846 5.23684C2.38813 5.23684 3.07692 4.56359 3.07692 3.73308V2.22932C3.07692 1.39882 2.38813 0.725564 1.53846 0.725564Z" fill="#1481B8"/>
<path fill-rule="evenodd" clip-rule="evenodd" d="M5.38462 6.7406C4.95978 6.7406 4.61538 7.07723 4.61538 7.49248V8.99624C4.61538 9.41149 4.95978 9.74812 5.38462 9.74812C5.80945 9.74812 6.15385 9.41149 6.15385 8.99624V7.49248C6.15385 7.07723 5.80945 6.7406 5.38462 6.7406ZM5.38462 5.98872C4.53495 5.98872 3.84615 6.66198 3.84615 7.49248V8.99624C3.84615 9.82674 4.53495 10.5 5.38462 10.5C6.23428 10.5 6.92308 9.82674 6.92308 8.99624V7.49248C6.92308 6.66198 6.23428 5.98872 5.38462 5.98872Z" fill="#1481B8"/>
<path fill-rule="evenodd" clip-rule="evenodd" d="M4.30769 2.00376L5.46154 0.5L6.15385 0.725564V5.23684H5.38461L5.38462 1.85338L4.92308 2.45489L4.30769 2.00376Z" fill="#1481B8"/>
<path fill-rule="evenodd" clip-rule="evenodd" d="M0.461538 7.26692L1.61538 5.76316L2.30769 5.98872V10.5H1.53846L1.53846 7.11654L1.07692 7.71805L0.461538 7.26692Z" fill="#1481B8"/>
</svg>
