<svg width="7" height="10" viewBox="0 0 7 10" fill="none" xmlns="http://www.w3.org/2000/svg">
<path fill-rule="evenodd" clip-rule="evenodd" d="M1.53846 0.977444C1.11363 0.977444 0.769231 1.31407 0.769231 1.72932V3.23308C0.769231 3.64833 1.11363 3.98496 1.53846 3.98496C1.9633 3.98496 2.30769 3.64833 2.30769 3.23308V1.72932C2.30769 1.31407 1.9633 0.977444 1.53846 0.977444ZM1.53846 0.225564C0.688793 0.225564 0 0.89882 0 1.72932V3.23308C0 4.06359 0.688793 4.73684 1.53846 4.73684C2.38813 4.73684 3.07692 4.06359 3.07692 3.23308V1.72932C3.07692 0.89882 2.38813 0.225564 1.53846 0.225564Z" fill="#5C5757"/>
<path fill-rule="evenodd" clip-rule="evenodd" d="M5.38462 6.2406C4.95978 6.2406 4.61538 6.57723 4.61538 6.99248V8.49624C4.61538 8.91149 4.95978 9.24812 5.38462 9.24812C5.80945 9.24812 6.15385 8.91149 6.15385 8.49624V6.99248C6.15385 6.57723 5.80945 6.2406 5.38462 6.2406ZM5.38462 5.48872C4.53495 5.48872 3.84615 6.16198 3.84615 6.99248V8.49624C3.84615 9.32674 4.53495 10 5.38462 10C6.23428 10 6.92308 9.32674 6.92308 8.49624V6.99248C6.92308 6.16198 6.23428 5.48872 5.38462 5.48872Z" fill="#5C5757"/>
<path fill-rule="evenodd" clip-rule="evenodd" d="M4.30769 1.50376L5.46154 0L6.15385 0.225564V4.73684H5.38461L5.38462 1.35338L4.92308 1.95489L4.30769 1.50376Z" fill="#5C5757"/>
<path fill-rule="evenodd" clip-rule="evenodd" d="M0.461538 6.76692L1.61538 5.26316L2.30769 5.48872V10H1.53846L1.53846 6.61654L1.07692 7.21805L0.461538 6.76692Z" fill="#5C5757"/>
</svg>
