<svg width="12" height="13" viewBox="0 0 12 13" fill="none" xmlns="http://www.w3.org/2000/svg">
<path fill-rule="evenodd" clip-rule="evenodd" d="M4.53846 2.47744C4.11363 2.47744 3.76923 2.81407 3.76923 3.22932V4.73308C3.76923 5.14833 4.11363 5.48496 4.53846 5.48496C4.9633 5.48496 5.30769 5.14833 5.30769 4.73308V3.22932C5.30769 2.81407 4.9633 2.47744 4.53846 2.47744ZM4.53846 1.72556C3.68879 1.72556 3 2.39882 3 3.22932V4.73308C3 5.56359 3.68879 6.23684 4.53846 6.23684C5.38813 6.23684 6.07692 5.56359 6.07692 4.73308V3.22932C6.07692 2.39882 5.38813 1.72556 4.53846 1.72556Z" fill="#1481B8"/>
<path fill-rule="evenodd" clip-rule="evenodd" d="M8.38462 7.7406C7.95978 7.7406 7.61538 8.07723 7.61538 8.49248V9.99624C7.61538 10.4115 7.95978 10.7481 8.38462 10.7481C8.80945 10.7481 9.15385 10.4115 9.15385 9.99624V8.49248C9.15385 8.07723 8.80945 7.7406 8.38462 7.7406ZM8.38462 6.98872C7.53495 6.98872 6.84615 7.66198 6.84615 8.49248V9.99624C6.84615 10.8267 7.53495 11.5 8.38462 11.5C9.23428 11.5 9.92308 10.8267 9.92308 9.99624V8.49248C9.92308 7.66198 9.23428 6.98872 8.38462 6.98872Z" fill="#1481B8"/>
<path fill-rule="evenodd" clip-rule="evenodd" d="M7.30769 3.00376L8.46154 1.5L9.15385 1.72556V6.23684H8.38461L8.38462 2.85338L7.92308 3.45489L7.30769 3.00376Z" fill="#1481B8"/>
<path fill-rule="evenodd" clip-rule="evenodd" d="M3.46154 8.26692L4.61538 6.76316L5.30769 6.98872V11.5H4.53846L4.53846 8.11654L4.07692 8.71805L3.46154 8.26692Z" fill="#1481B8"/>
</svg>
