<svg width="15" height="15" viewBox="0 0 15 15" fill="none" xmlns="http://www.w3.org/2000/svg">
<path fill-rule="evenodd" clip-rule="evenodd" d="M5 2.27068C4.44772 2.27068 4 2.70829 4 3.24812V5.20301C4 5.74283 4.44772 6.18045 5 6.18045C5.55228 6.18045 6 5.74283 6 5.20301V3.24812C6 2.70829 5.55228 2.27068 5 2.27068ZM5 1.29323C3.89543 1.29323 3 2.16847 3 3.24812V5.20301C3 6.28266 3.89543 7.15789 5 7.15789C6.10457 7.15789 7 6.28266 7 5.20301V3.24812C7 2.16847 6.10457 1.29323 5 1.29323Z" fill="#808080"/>
<path fill-rule="evenodd" clip-rule="evenodd" d="M10 9.11278C9.44772 9.11278 9 9.5504 9 10.0902V12.0451C9 12.5849 9.44772 13.0226 10 13.0226C10.5523 13.0226 11 12.5849 11 12.0451V10.0902C11 9.5504 10.5523 9.11278 10 9.11278ZM10 8.13534C8.89543 8.13534 8 9.01057 8 10.0902V12.0451C8 13.1248 8.89543 14 10 14C11.1046 14 12 13.1248 12 12.0451V10.0902C12 9.01057 11.1046 8.13534 10 8.13534Z" fill="#808080"/>
<path fill-rule="evenodd" clip-rule="evenodd" d="M8.6 2.95489L10.1 1L11 1.29323V7.15789H10L10 2.7594L9.4 3.54135L8.6 2.95489Z" fill="#808080"/>
<path fill-rule="evenodd" clip-rule="evenodd" d="M3.6 9.79699L5.1 7.8421L6 8.13534V14H5L5 9.6015L4.4 10.3835L3.6 9.79699Z" fill="#808080"/>
</svg>
