<svg viewBox="0 0 12 12" fill="none" xmlns="http://www.w3.org/2000/svg">
<path fill-rule="evenodd" clip-rule="evenodd" d="M4.53846 1.97744C4.11363 1.97744 3.76923 2.31407 3.76923 2.72932V4.23308C3.76923 4.64833 4.11363 4.98496 4.53846 4.98496C4.9633 4.98496 5.30769 4.64833 5.30769 4.23308V2.72932C5.30769 2.31407 4.9633 1.97744 4.53846 1.97744ZM4.53846 1.22556C3.68879 1.22556 3 1.89882 3 2.72932V4.23308C3 5.06359 3.68879 5.73684 4.53846 5.73684C5.38813 5.73684 6.07692 5.06359 6.07692 4.23308V2.72932C6.07692 1.89882 5.38813 1.22556 4.53846 1.22556Z" fill="currentColor"/>
<path fill-rule="evenodd" clip-rule="evenodd" d="M8.38462 7.2406C7.95978 7.2406 7.61538 7.57723 7.61538 7.99248V9.49624C7.61538 9.91149 7.95978 10.2481 8.38462 10.2481C8.80945 10.2481 9.15385 9.91149 9.15385 9.49624V7.99248C9.15385 7.57723 8.80945 7.2406 8.38462 7.2406ZM8.38462 6.48872C7.53495 6.48872 6.84615 7.16198 6.84615 7.99248V9.49624C6.84615 10.3267 7.53495 11 8.38462 11C9.23428 11 9.92308 10.3267 9.92308 9.49624V7.99248C9.92308 7.16198 9.23428 6.48872 8.38462 6.48872Z" fill="currentColor"/>
<path fill-rule="evenodd" clip-rule="evenodd" d="M7.30769 2.50376L8.46154 1L9.15385 1.22556V5.73684H8.38461L8.38462 2.35338L7.92308 2.95489L7.30769 2.50376Z" fill="currentColor"/>
<path fill-rule="evenodd" clip-rule="evenodd" d="M3.46154 7.76692L4.61538 6.26316L5.30769 6.48872V11H4.53846L4.53846 7.61654L4.07692 8.21805L3.46154 7.76692Z" fill="currentColor"/>
</svg>
