<svg width="16" height="16" viewBox="0 0 16 16" fill="none" xmlns="http://www.w3.org/2000/svg">
<path fill-rule="evenodd" clip-rule="evenodd" d="M2.5 5.3335H13.5C13.7762 5.3335 14 5.13452 14 4.88905V3.77794C14 3.53247 13.7762 3.3335 13.5 3.3335H2.5C2.22384 3.3335 2 3.53247 2 3.77794V4.88905C2 5.13452 2.22384 5.3335 2.5 5.3335ZM2.5 9.3335H13.5C13.7762 9.3335 14 9.13452 14 8.88905V7.77794C14 7.53247 13.7762 7.3335 13.5 7.3335H2.5C2.22384 7.3335 2 7.53247 2 7.77794V8.88905C2 9.13452 2.22384 9.3335 2.5 9.3335ZM13.5 13.3335H2.5C2.22384 13.3335 2 13.1345 2 12.8891V11.7779C2 11.5325 2.22384 11.3335 2.5 11.3335H13.5C13.7762 11.3335 14 11.5325 14 11.7779V12.8891C14 13.1345 13.7762 13.3335 13.5 13.3335Z" fill="#666666"/>
</svg>
