<svg width="21" height="20" viewBox="0 0 21 20" fill="none" xmlns="http://www.w3.org/2000/svg">
<path d="M15.0725 2H19.0895C19.3559 2 19.6113 2.10536 19.7996 2.29289C19.988 2.48043 20.0938 2.73478 20.0938 3V19C20.0938 19.2652 19.988 19.5196 19.7996 19.7071C19.6113 19.8946 19.3559 20 19.0895 20H1.01281C0.74646 20 0.491022 19.8946 0.302686 19.7071C0.114351 19.5196 0.00854492 19.2652 0.00854492 19V3C0.00854492 2.73478 0.114351 2.48043 0.302686 2.29289C0.491022 2.10536 0.74646 2 1.01281 2H5.02985V0H7.03837V2H13.0639V0H15.0725V2ZM18.0852 10H2.01707V18H18.0852V10ZM13.0639 4H7.03837V6H5.02985V4H2.01707V8H18.0852V4H15.0725V6H13.0639V4ZM4.02559 12H6.03411V14H4.02559V12ZM9.0469 12H11.0554V14H9.0469V12ZM14.0682 12H16.0767V14H14.0682V12Z" fill="#4E8AFF"/>
</svg>