<svg width="14" height="14" viewBox="0 0 14 14" fill="none" xmlns="http://www.w3.org/2000/svg">
<path d="M3.66659 3.66665V0.99998C3.66659 0.823169 3.73682 0.653599 3.86185 0.528575C3.98687 0.403551 4.15644 0.333313 4.33325 0.333313H12.9999C13.1767 0.333313 13.3463 0.403551 13.4713 0.528575C13.5963 0.653599 13.6666 0.823169 13.6666 0.99998V9.66665C13.6666 9.84346 13.5963 10.013 13.4713 10.1381C13.3463 10.2631 13.1767 10.3333 12.9999 10.3333H10.3333V12.9953C10.3333 13.366 10.0339 13.6666 9.66192 13.6666H1.00459C0.9164 13.6667 0.829063 13.6494 0.747574 13.6157C0.666084 13.582 0.592042 13.5326 0.529686 13.4702C0.467329 13.4079 0.417882 13.3338 0.384176 13.2523C0.350469 13.1708 0.333165 13.0835 0.333252 12.9953L0.335252 4.33798C0.335252 3.96731 0.634586 3.66665 1.00659 3.66665H3.66659ZM4.99992 3.66665H9.66192C10.0326 3.66665 10.3333 3.96598 10.3333 4.33798V8.99998H12.3333V1.66665H4.99992V3.66665Z" fill="#999999"/>
</svg>
