<svg width="12" height="12" viewBox="0 0 12 12" fill="none" xmlns="http://www.w3.org/2000/svg">
<path d="M9.42857 5.1001H2.57143C2.25589 5.1001 2 5.35599 2 5.67153V6.24296C2 6.55849 2.25589 6.81438 2.57143 6.81438H9.42857C9.74411 6.81438 10 6.55849 10 6.24296V5.67153C10 5.35599 9.74411 5.1001 9.42857 5.1001Z" fill="white"/>
<path fill-rule="evenodd" clip-rule="evenodd" d="M1.35 0H10.65C11.4241 0 12 0.575893 12 1.35V10.65C12 11.4241 11.4241 12 10.65 12H1.35C0.575893 12 0 11.4241 0 10.65V1.35C0 0.575893 0.575893 0 1.35 0ZM1.50002 10.8H10.65C10.7275 10.8 10.8 10.7275 10.8 10.65V1.5C10.8 1.42249 10.7275 1.35 10.65 1.35H1.50002C1.42251 1.35 1.35002 1.42249 1.35002 1.5V10.65C1.35002 10.7275 1.42251 10.8 1.50002 10.8Z" fill="white"/>
</svg>
