<svg width="12" height="12" viewBox="0 0 12 12" fill="none" xmlns="http://www.w3.org/2000/svg">
<path fill-rule="evenodd" clip-rule="evenodd" d="M1.34994 0H10.6499C11.424 0 11.9999 0.575893 11.9999 1.35V10.65C11.9999 11.4241 11.424 12 10.6499 12H1.34994C0.575832 12 -6.10352e-05 11.4241 -6.10352e-05 10.65V1.35C-6.10352e-05 0.575893 0.575832 0 1.34994 0ZM1.49993 10.8H10.6499C10.7274 10.8 10.7999 10.7275 10.7999 10.65V1.5C10.7999 1.42249 10.7274 1.35 10.6499 1.35H1.49993C1.42242 1.35 1.34993 1.42249 1.34993 1.5V10.65C1.34993 10.7275 1.42242 10.8 1.49993 10.8Z" fill="white"/>
<path d="M10.7999 10.8H1.34991V1.35H10.7999V10.8Z" fill="white"/>
<path d="M8.85709 5.33333H3.1428C2.87985 5.33333 2.66661 5.53236 2.66661 5.77778V6.22222C2.66661 6.46764 2.87985 6.66667 3.1428 6.66667H8.85709C9.12003 6.66667 9.33328 6.46764 9.33328 6.22222V5.77778C9.33328 5.53236 9.12003 5.33333 8.85709 5.33333Z" fill="#B3B3B3"/>
</svg>
