<svg width="24" height="24" viewBox="0 0 24 24" fill="none" xmlns="http://www.w3.org/2000/svg">
<path fill-rule="evenodd" clip-rule="evenodd" d="M11.9716 9.83269L15.5639 6.26273C15.9164 5.91242 16.4864 5.91242 16.8352 6.26273L17.6827 7.10497C18.0352 7.45528 18.0352 8.02174 17.6827 8.36832L14.0714 11.9646L17.6864 15.5571C18.0389 15.9075 18.0389 16.4739 17.6864 16.8205L16.8389 17.6665C16.4864 18.0168 15.9164 18.0168 15.5677 17.6665L11.9754 14.0965L8.38313 17.6665C8.03063 18.0168 7.46063 18.0168 7.11188 17.6665L6.26438 16.8242C5.91187 16.4739 5.91187 15.9075 6.26438 15.5609L9.87938 11.9683L6.26438 8.37578C5.91187 8.02547 5.91187 7.45901 6.26438 7.11242L7.10813 6.26273C7.46063 5.91242 8.03063 5.91242 8.37938 6.26273L11.9716 9.83269Z" fill="#4D4D4D"/>
</svg>
