<svg width="16" height="16" viewBox="0 0 16 16" fill="none" xmlns="http://www.w3.org/2000/svg">
<path fill-rule="evenodd" clip-rule="evenodd" d="M15 0H5C4.448 0 4 0.447503 4 1V4H1C0.448 4 0 4.4475 0 5V15C0 15.552 0.448 16 1 16H11C11.5525 16 12 15.552 12 15V12H15C15.552 12 16 11.552 16 11V1C16 0.447503 15.552 0 15 0ZM10.5 14.5H1.5V5.5H4V11C4 11.5525 4.448 12 5 12H10.5V14.5ZM5.5 10.5H14.5V1.5H5.5V10.5Z" fill="#666666"/>
<path d="M12.857 5.28555H10.7141V3.14269C10.7141 2.87975 10.5009 2.6665 10.2379 2.6665H9.76174C9.4988 2.6665 9.28555 2.87975 9.28555 3.14269V5.28555H7.14269C6.87975 5.28555 6.6665 5.4988 6.6665 5.76174V6.23793C6.6665 6.50088 6.87975 6.71412 7.14269 6.71412H9.28555V8.85698C9.28555 9.11993 9.4988 9.33317 9.76174 9.33317H10.2379C10.5009 9.33317 10.7141 9.11993 10.7141 8.85698V6.71412H12.857C13.1199 6.71412 13.3332 6.50088 13.3332 6.23793V5.76174C13.3332 5.4988 13.1199 5.28555 12.857 5.28555Z" fill="#666666"/>
</svg>
