<svg width="12" height="12" viewBox="0 0 12 12" fill="none" xmlns="http://www.w3.org/2000/svg">
<path fill-rule="evenodd" clip-rule="evenodd" d="M1.34994 0H10.6499C11.424 0 11.9999 0.575893 11.9999 1.35V10.65C11.9999 11.4241 11.424 12 10.6499 12H1.34994C0.575832 12 -6.10352e-05 11.4241 -6.10352e-05 10.65V1.35C-6.10352e-05 0.575893 0.575832 0 1.34994 0ZM1.49993 10.8H10.6499C10.7274 10.8 10.7999 10.7275 10.7999 10.65V1.5C10.7999 1.42249 10.7274 1.35 10.6499 1.35H1.49993C1.42242 1.35 1.34993 1.42249 1.34993 1.5V10.65C1.34993 10.7275 1.42242 10.8 1.49993 10.8Z" fill="white"/>
<path d="M10.7999 10.8H1.34991V1.35H10.7999V10.8Z" fill="white"/>
<path d="M8.85709 5.28571H6.71423V3.14286C6.71423 2.87991 6.50099 2.66667 6.23804 2.66667H5.76185C5.4989 2.66667 5.28566 2.87991 5.28566 3.14286V5.28571H3.1428C2.87985 5.28571 2.66661 5.49896 2.66661 5.7619V6.2381C2.66661 6.50104 2.87985 6.71429 3.1428 6.71429H5.28566V8.85714C5.28566 9.12009 5.4989 9.33333 5.76185 9.33333H6.23804C6.50099 9.33333 6.71423 9.12009 6.71423 8.85714V6.71429H8.85709C9.12003 6.71429 9.33328 6.50104 9.33328 6.2381V5.7619C9.33328 5.49896 9.12003 5.28571 8.85709 5.28571Z" fill="#B3B3B3"/>
</svg>
