<svg width="730" height="730" version="1.1" viewBox="185 250 730 730" xmlns="http://www.w3.org/2000/svg">
    <g transform="matrix(1.0308 0 0 1.0308 -21.144 -14.293)">
        <path d="m878.4 828.4s-317.9 136.2-322.3 136.2v-243.1z" fill="#10273d"/>
        <path d="m233.8 828.4s317.9 136.2 322.3 136.2v-243.1z" fill="#2b5b80"/>
        <polygon points="847.6 529.6 878.4 828.4 556.1 721.5 723.1 434.3" fill="#1d3d56"/>
        <polygon points="260.2 529.6 233.8 828.4 556.1 721.5 384.7 434.3" fill="#7c8fa5"/>
        <polygon points="556.1 721.5 723.1 434.3 633 370.6 556.1 370.6 551.7 370.6 474.8 370.6 384.7 434.3" fill="#255372"/>
        <polygon points="895.2 256.4 723.1 434.4 847.6 529.6" fill="#10273d"/>
        <polygon points="895.2 256.4 633 370.6 723.1 434.4" fill="#2b5b80"/>
        <polygon points="212.6 256.4 384.7 434.4 260.2 529.6" fill="#2b5b80"/>
        <polygon points="212.6 256.4 474.8 370.6 384.7 434.4" fill="#142f4d"/>
    </g>
</svg>
