<?xml version="1.0" encoding="utf-8"?>
<svg version="1.1" id="Layer_1" xmlns="http://www.w3.org/2000/svg" xmlns:xlink="http://www.w3.org/1999/xlink" x="0px" y="0px"
     viewBox="0 0 2316 2316" style="enable-background:new 0 0 2316 2316;" xml:space="preserve">
<style type="text/css">
	.st0{fill:#FFFFFF;}
	.st1{fill:#10273D;}
</style>
    <circle class="st0" cx="1158" cy="1158" r="1110"/>
    <g id="cat">
	<path class="st1" d="M1744.4,1551.1L1744.4,1551.1L1744.4,1551.1L1506.3,1825l0,0l-225.5-572.7c117.6-50,240.6-102.7,240.6-102.7
		l-43.1-418.4l66.7-382.6l0,0l0,0v0l0,0l-367.2,160l4,2.8l-4-2.8H956.2l0,0l-367.2-160l0,0v0l0,0l0,0l66.7,382.6l0,0l-36.9,418.5h0
		c0,0,119.4,51.2,235.3,100.5l-282.5,717.5h492.3h6.2h492.3v0l0,0h182L1744.4,1551.1L1744.4,1551.1L1744.4,1551.1z"/>
</g>
</svg>
