<?xml version="1.0" encoding="utf-8"?>
<!-- Generator: Adobe Illustrator 24.3.0, SVG Export Plug-In . SVG Version: 6.00 Build 0)  -->
<svg version="1.1" id="ухоЛ1" xmlns="http://www.w3.org/2000/svg" xmlns:xlink="http://www.w3.org/1999/xlink" x="0px" y="0px"
     viewBox="0 0 1107.8 1116" style="enable-background:new 0 0 1107.8 1116;" xml:space="preserve">
<style type="text/css">
	.st0{fill:#FFFFFF;}
	.st1{fill:#10273D;}
	.st2{fill:#2B5B80;}
	.st3{fill:#1D3D56;}
	.st4{fill:#7C8FA5;}
	.st5{fill:#255372;}
	.st6{fill:#142F4D;}
</style>
    <g>
	<polygon class="st0" points="1019,830 1019,293 553.9,24.5 88.8,293 88.8,830 553.9,1098.5 	"/>
        <g>
		<path class="st1" d="M878.4,828.4c0,0-317.9,136.2-322.3,136.2V721.5L878.4,828.4z"/>
            <path class="st2" d="M233.8,828.4c0,0,317.9,136.2,322.3,136.2V721.5L233.8,828.4z"/>
            <polygon class="st3" points="847.6,529.6 878.4,828.4 556.1,721.5 723.1,434.3 		"/>
            <polygon class="st4" points="260.2,529.6 233.8,828.4 556.1,721.5 384.7,434.3 		"/>
            <polygon class="st5" points="723.1,434.3 633,370.6 556.1,370.6 551.7,370.6 474.8,370.6 384.7,434.3 556.1,721.5 		"/>
            <polygon class="st1" points="723.1,434.4 847.6,529.6 895.2,256.4 		"/>
            <polygon class="st2" points="633,370.6 723.1,434.4 895.2,256.4 		"/>
            <polygon class="st2" points="384.7,434.4 260.2,529.6 212.6,256.4 		"/>
            <polygon class="st6" points="474.8,370.6 384.7,434.4 212.6,256.4 		"/>
	</g>
</g>
</svg>
