<svg width="14" height="14" viewBox="0 0 14 14" fill="none" xmlns="http://www.w3.org/2000/svg">
<path fill-rule="evenodd" clip-rule="evenodd" d="M6.88269 6.58341C6.96595 6.41017 7.14114 6.3 7.33334 6.3H13.2C13.3922 6.3 13.5674 6.41017 13.6507 6.58341C13.7339 6.75664 13.7105 6.96226 13.5904 7.11235L11.5667 9.64206V13.2C11.5667 13.394 11.4544 13.5705 11.2787 13.6528C11.1031 13.7351 10.8956 13.7083 10.7466 13.5841L9.14658 12.2508C9.03258 12.1558 8.96667 12.0151 8.96667 11.8667V9.64206L6.9429 7.11235C6.82284 6.96226 6.79943 6.75664 6.88269 6.58341ZM8.37365 7.3L9.85711 9.15432C9.92803 9.24298 9.96667 9.35313 9.96667 9.46667V11.6325L10.5667 12.1325V9.46667C10.5667 9.35313 10.6053 9.24298 10.6762 9.15432L12.1597 7.3H8.37365Z" fill="#ffffff"/>
<path d="M5.5 8.32849L7.58582 10.4143L5.5 12.5001V8.32849Z" fill="#ffffff"/>
<path d="M11 5.5C11 4.37923 10.6576 3.28522 10.0187 2.36443C9.3797 1.44363 8.47469 0.740024 7.42479 0.347798C6.3749 -0.0444267 5.23024 -0.106544 4.14406 0.169765C3.05789 0.446073 2.08205 1.04762 1.34721 1.89386C0.612363 2.7401 0.153586 3.79064 0.0323031 4.90482C-0.08898 6.01901 0.13302 7.14365 0.668579 8.12818C1.20414 9.11271 2.02769 9.91012 3.02898 10.4137C4.03026 10.9172 5.16148 11.1028 6.27118 10.9457L6.13071 9.95377C5.22314 10.0823 4.29797 9.93048 3.47906 9.51866C2.66015 9.10684 1.98661 8.45467 1.5486 7.64947C1.11059 6.84427 0.929021 5.92447 1.02821 5.01323C1.12741 4.10199 1.50262 3.2428 2.10362 2.55069C2.70461 1.85859 3.50271 1.36662 4.39104 1.14064C5.27937 0.914656 6.21554 0.965459 7.0742 1.28624C7.93287 1.60703 8.67303 2.18248 9.19561 2.93555C9.71818 3.68863 9.99821 4.58338 9.99821 5.5H11Z" fill="#ffffff"/>
<path d="M6 2H5V5.44737L2.88505 6.9353L3.46044 7.75318L6 6V2Z" fill="#ffffff"/>
</svg>
