<svg width="15" height="8" viewBox="0 0 15 8" fill="none" xmlns="http://www.w3.org/2000/svg">
<path d="M10.9747 0.651549C10.1463 0.754382 9.36085 1.16793 8.48849 1.96074C8.27603 2.15313 8.1301 2.29577 7.78352 2.65071C7.53673 2.90392 7.50024 2.93599 7.482 2.92604C7.4702 2.9194 7.3747 2.82321 7.26847 2.71153C6.04094 1.41672 5.24476 0.87159 4.32304 0.696884C3.72215 0.582994 3.09873 0.654866 2.53218 0.90255C1.58256 1.31831 0.887245 2.19294 0.693029 3.21685C0.649036 3.44573 0.638306 3.56847 0.638306 3.84158C0.638306 4.27503 0.696249 4.63661 0.827157 5.01919C1.18984 6.08511 2.05576 6.81821 3.14916 6.98628C3.82946 7.09133 4.58379 6.95754 5.24906 6.61586C5.5098 6.48207 5.72977 6.33943 6.00339 6.12824C6.34782 5.86397 6.59998 5.63066 7.14186 5.07779C7.33071 4.88429 7.49273 4.72617 7.50024 4.72617C7.50883 4.72617 7.58287 4.79915 7.66549 4.88761C7.85005 5.08553 8.30071 5.53335 8.49171 5.70916C9.37158 6.51745 10.039 6.87571 10.8802 6.99513C10.9425 7.00398 11.0884 7.0084 11.2558 7.0084C11.4844 7.0084 11.5552 7.00398 11.685 6.98297C12.3825 6.87239 12.978 6.56389 13.4651 6.063C13.9555 5.55768 14.2613 4.90751 14.3482 4.18436C14.3686 4.01297 14.3654 3.56183 14.3418 3.38823C14.2581 2.76792 14.0467 2.20842 13.7323 1.77718C13.6304 1.63565 13.4169 1.41008 13.2763 1.29619C12.8857 0.975529 12.3782 0.758805 11.7977 0.665924C11.6131 0.637175 11.1603 0.628329 10.9747 0.651549ZM4.18141 1.97732C4.54194 2.05583 4.90676 2.23496 5.26515 2.50918C5.39284 2.60648 5.58384 2.76792 5.70831 2.88402C5.86497 3.03108 6.65256 3.82389 6.65256 3.83495C6.65256 3.85264 5.96583 4.55257 5.79951 4.70627C5.27159 5.19058 4.78337 5.49686 4.32412 5.63397C4.10737 5.69811 3.97968 5.7158 3.71786 5.7158C3.51399 5.7158 3.4657 5.71248 3.35947 5.69037C2.7264 5.55879 2.26285 5.13308 2.06113 4.49949C1.88944 3.95879 1.92163 3.44573 2.1577 2.96806C2.4281 2.41961 2.91525 2.05693 3.51614 1.95631C3.58374 1.94525 3.6728 1.94194 3.83053 1.94525C4.01509 1.94857 4.07196 1.9541 4.18141 1.97732ZM11.5455 1.95631C11.8964 2.00718 12.1947 2.14539 12.4479 2.37428C12.919 2.79888 13.1443 3.54967 13.0027 4.22859C12.8589 4.91967 12.3428 5.47917 11.6839 5.66051C11.5251 5.70364 11.3846 5.72133 11.1968 5.72133C10.8642 5.72133 10.597 5.65277 10.2633 5.4836C9.91238 5.30668 9.57438 5.05125 9.15054 4.64213C8.88444 4.3856 8.35329 3.84711 8.35007 3.83053C8.34685 3.81284 8.8501 3.28319 9.06685 3.07752C9.79864 2.38091 10.377 2.04588 10.9983 1.95631C11.1378 1.93641 11.4082 1.93641 11.5455 1.95631Z" fill="#595959"/>
</svg>
