<svg width="16" height="12" viewBox="0 0 16 12" fill="none" xmlns="http://www.w3.org/2000/svg">
<path d="M2.02148 7.08008C2.02148 7.41211 2.11589 7.65299 2.30469 7.80273C2.49674 7.95247 2.77669 8.0306 3.14453 8.03711V8.7207C2.52604 8.71419 2.04753 8.57259 1.70898 8.2959C1.37044 8.01921 1.20117 7.63021 1.20117 7.12891V5.64941C1.20117 5.31087 1.09863 5.06999 0.893555 4.92676C0.688477 4.78027 0.390625 4.70703 0 4.70703V4.01855C0.423177 4.01204 0.729167 3.93392 0.917969 3.78418C1.10677 3.63444 1.20117 3.40332 1.20117 3.09082V1.59668C1.20117 1.09212 1.37695 0.69987 1.72852 0.419922C2.08008 0.139974 2.55208 0 3.14453 0V0.678711C2.39583 0.698242 2.02148 1.02214 2.02148 1.65039V3.09082C2.02148 3.79069 1.65853 4.2041 0.932617 4.33105V4.38965C1.65853 4.5166 2.02148 4.93001 2.02148 5.62988V7.08008Z" fill="#808080"/>
<path d="M5.1416 3.65723C4.96908 3.65723 4.77865 3.71257 4.57031 3.82324C4.36523 3.93066 4.1748 4.07227 3.99902 4.24805V3.51074C4.32454 3.15592 4.72168 2.97852 5.19043 2.97852C5.41178 2.97852 5.61361 3.0013 5.7959 3.04688C5.98145 3.09245 6.21908 3.17708 6.50879 3.30078C6.72363 3.39193 6.91081 3.46029 7.07031 3.50586C7.22982 3.54818 7.38607 3.56934 7.53906 3.56934C7.71484 3.56934 7.9069 3.51725 8.11523 3.41309C8.32357 3.30892 8.51562 3.16406 8.69141 2.97852V3.71094C8.35938 4.06901 7.96224 4.24805 7.5 4.24805C7.26562 4.24805 7.0459 4.22201 6.84082 4.16992C6.63574 4.11458 6.41602 4.03483 6.18164 3.93066C5.9375 3.8265 5.74219 3.75488 5.5957 3.71582C5.44922 3.67676 5.29785 3.65723 5.1416 3.65723Z" fill="#808080"/>
<path d="M11.7627 4.33105C11.0368 4.2041 10.6738 3.79069 10.6738 3.09082V1.65039C10.6738 1.02214 10.3044 0.698242 9.56543 0.678711V0C10.1644 0 10.6348 0.141602 10.9766 0.424805C11.3216 0.708008 11.4941 1.09863 11.4941 1.59668V3.09082C11.4941 3.40658 11.5902 3.63932 11.7822 3.78906C11.9743 3.93555 12.2819 4.01204 12.7051 4.01855V4.70703C12.3079 4.70703 12.0068 4.78027 11.8018 4.92676C11.5967 5.06999 11.4941 5.31087 11.4941 5.64941V7.12891C11.4941 7.62695 11.3265 8.01432 10.9912 8.29102C10.6592 8.57096 10.1839 8.71419 9.56543 8.7207V8.03711C9.92676 8.0306 10.2018 7.95247 10.3906 7.80273C10.5794 7.65299 10.6738 7.41211 10.6738 7.08008V5.62988C10.6738 5.25879 10.7633 4.97559 10.9424 4.78027C11.1214 4.58496 11.3949 4.45475 11.7627 4.38965V4.33105Z" fill="#808080"/>
</svg>
