<svg width="12" height="13" viewBox="0 0 12 13" fill="none" xmlns="http://www.w3.org/2000/svg">
<path d="M2.62262 8.18309C2.62262 8.44961 2.69839 8.64296 2.84994 8.76316C3.00411 8.88335 3.22882 8.94606 3.52408 8.95129V9.5C3.02762 9.49477 2.64352 9.38111 2.37178 9.15901C2.10004 8.93692 1.96417 8.62467 1.96417 8.22228V7.03471C1.96417 6.76297 1.88186 6.56962 1.71725 6.45465C1.55263 6.33707 1.31355 6.27828 1 6.27828V5.72564C1.33968 5.72042 1.58529 5.65771 1.73684 5.53751C1.88839 5.41732 1.96417 5.2318 1.96417 4.98096V3.78163C1.96417 3.37663 2.10526 3.06178 2.38746 2.83707C2.66965 2.61236 3.04853 2.5 3.52408 2.5V3.04479C2.92311 3.06047 2.62262 3.32046 2.62262 3.82475V4.98096C2.62262 5.54274 2.33128 5.87458 1.7486 5.97648V6.02352C2.33128 6.12542 2.62262 6.45726 2.62262 7.01904V8.18309Z" fill="#1481B8"/>
<path d="M5.1271 6.02576C4.98862 6.02576 4.83576 6.07018 4.66853 6.15901C4.50392 6.24524 4.35106 6.3589 4.20997 6.5V5.90817C4.47126 5.62337 4.79003 5.48096 5.16629 5.48096C5.34397 5.48096 5.50597 5.49925 5.6523 5.53583C5.80123 5.57242 5.99197 5.64035 6.22452 5.73964C6.39698 5.8128 6.54722 5.86767 6.67525 5.90426C6.80328 5.93822 6.9287 5.95521 7.05151 5.95521C7.19261 5.95521 7.34677 5.9134 7.514 5.82979C7.68122 5.74617 7.83539 5.6299 7.97648 5.48096V6.06887C7.70997 6.35629 7.39119 6.5 7.02016 6.5C6.83203 6.5 6.65566 6.4791 6.49104 6.43729C6.32643 6.39287 6.15006 6.32885 5.96193 6.24524C5.76596 6.16163 5.60918 6.10414 5.4916 6.07279C5.37402 6.04143 5.25252 6.02576 5.1271 6.02576Z" fill="#1481B8"/>
<path d="M10.4418 5.97648C9.85909 5.87458 9.56775 5.54274 9.56775 4.98096V3.82475C9.56775 3.32046 9.27118 3.06047 8.67805 3.04479V2.5C9.15883 2.5 9.53639 2.61366 9.81075 2.84099C10.0877 3.06831 10.2262 3.38186 10.2262 3.78163V4.98096C10.2262 5.23442 10.3033 5.42124 10.4574 5.54143C10.6116 5.65901 10.8585 5.72042 11.1982 5.72564V6.27828C10.8794 6.27828 10.6377 6.33707 10.4731 6.45465C10.3085 6.56962 10.2262 6.76297 10.2262 7.03471V8.22228C10.2262 8.62206 10.0916 8.933 9.82251 9.1551C9.55599 9.37981 9.17451 9.49477 8.67805 9.5V8.95129C8.96809 8.94606 9.18888 8.88335 9.34043 8.76316C9.49197 8.64296 9.56775 8.44961 9.56775 8.18309V7.01904C9.56775 6.72116 9.6396 6.49384 9.78331 6.33707C9.92702 6.18029 10.1465 6.07577 10.4418 6.02352V5.97648Z" fill="#1481B8"/>
</svg>
