<svg viewBox="0 0 12 12" fill="none" xmlns="http://www.w3.org/2000/svg">
<path d="M2.62262 7.68309C2.62262 7.94961 2.69839 8.14296 2.84994 8.26316C3.00411 8.38335 3.22882 8.44606 3.52408 8.45129V9C3.02762 8.99477 2.64352 8.88111 2.37178 8.65901C2.10004 8.43692 1.96417 8.12467 1.96417 7.72228V6.53471C1.96417 6.26297 1.88186 6.06962 1.71725 5.95465C1.55263 5.83707 1.31355 5.77828 1 5.77828V5.22564C1.33968 5.22042 1.58529 5.15771 1.73684 5.03751C1.88839 4.91732 1.96417 4.7318 1.96417 4.48096V3.28163C1.96417 2.87663 2.10526 2.56178 2.38746 2.33707C2.66965 2.11236 3.04853 2 3.52408 2V2.54479C2.92311 2.56047 2.62262 2.82046 2.62262 3.32475V4.48096C2.62262 5.04274 2.33128 5.37458 1.7486 5.47648V5.52352C2.33128 5.62542 2.62262 5.95726 2.62262 6.51904V7.68309Z" fill="currentColor"/>
<path d="M5.1271 5.52576C4.98862 5.52576 4.83576 5.57018 4.66853 5.65901C4.50392 5.74524 4.35106 5.8589 4.20997 6V5.40817C4.47126 5.12337 4.79003 4.98096 5.16629 4.98096C5.34397 4.98096 5.50597 4.99925 5.6523 5.03583C5.80123 5.07242 5.99197 5.14035 6.22452 5.23964C6.39698 5.3128 6.54722 5.36767 6.67525 5.40426C6.80328 5.43822 6.9287 5.45521 7.05151 5.45521C7.19261 5.45521 7.34677 5.4134 7.514 5.32979C7.68122 5.24617 7.83539 5.1299 7.97648 4.98096V5.56887C7.70997 5.85629 7.39119 6 7.02016 6C6.83203 6 6.65566 5.9791 6.49104 5.93729C6.32643 5.89287 6.15006 5.82885 5.96193 5.74524C5.76596 5.66163 5.60918 5.60414 5.4916 5.57279C5.37402 5.54143 5.25252 5.52576 5.1271 5.52576Z" fill="currentColor"/>
<path d="M10.4418 5.47648C9.85909 5.37458 9.56775 5.04274 9.56775 4.48096V3.32475C9.56775 2.82046 9.27118 2.56047 8.67805 2.54479V2C9.15883 2 9.53639 2.11366 9.81075 2.34099C10.0877 2.56831 10.2262 2.88186 10.2262 3.28163V4.48096C10.2262 4.73442 10.3033 4.92124 10.4574 5.04143C10.6116 5.15901 10.8585 5.22042 11.1982 5.22564V5.77828C10.8794 5.77828 10.6377 5.83707 10.4731 5.95465C10.3085 6.06962 10.2262 6.26297 10.2262 6.53471V7.72228C10.2262 8.12206 10.0916 8.433 9.82251 8.6551C9.55599 8.87981 9.17451 8.99477 8.67805 9V8.45129C8.96809 8.44606 9.18888 8.38335 9.34043 8.26316C9.49197 8.14296 9.56775 7.94961 9.56775 7.68309V6.51904C9.56775 6.22116 9.6396 5.99384 9.78331 5.83707C9.92702 5.68029 10.1465 5.57577 10.4418 5.52352V5.47648Z" fill="currentColor"/>
</svg>
