<svg width="11" height="7" viewBox="0 0 11 7" fill="none" xmlns="http://www.w3.org/2000/svg">
<path d="M1.62262 5.68309C1.62262 5.94961 1.69839 6.14296 1.84994 6.26316C2.00411 6.38335 2.22882 6.44606 2.52408 6.45129V7C2.02762 6.99477 1.64352 6.88111 1.37178 6.65901C1.10004 6.43692 0.964166 6.12467 0.964166 5.72228V4.53471C0.964166 4.26297 0.881859 4.06962 0.717245 3.95465C0.552632 3.83707 0.31355 3.77828 0 3.77828V3.22564C0.339679 3.22042 0.585293 3.15771 0.736842 3.03751C0.888391 2.91732 0.964166 2.7318 0.964166 2.48096V1.28163C0.964166 0.876633 1.10526 0.561777 1.38746 0.337066C1.66965 0.112355 2.04853 0 2.52408 0V0.544793C1.92311 0.56047 1.62262 0.820455 1.62262 1.32475V2.48096C1.62262 3.04274 1.33128 3.37458 0.7486 3.47648V3.52352C1.33128 3.62542 1.62262 3.95726 1.62262 4.51904V5.68309Z" fill="#5C5757"/>
<path d="M4.1271 3.52576C3.98862 3.52576 3.83576 3.57018 3.66853 3.65901C3.50392 3.74524 3.35106 3.8589 3.20997 4V3.40817C3.47126 3.12337 3.79003 2.98096 4.16629 2.98096C4.34397 2.98096 4.50597 2.99925 4.6523 3.03583C4.80123 3.07242 4.99197 3.14035 5.22452 3.23964C5.39698 3.3128 5.54722 3.36767 5.67525 3.40426C5.80328 3.43822 5.9287 3.45521 6.05151 3.45521C6.19261 3.45521 6.34677 3.4134 6.514 3.32979C6.68122 3.24617 6.83539 3.1299 6.97648 2.98096V3.56887C6.70997 3.85629 6.39119 4 6.02016 4C5.83203 4 5.65566 3.9791 5.49104 3.93729C5.32643 3.89287 5.15006 3.82885 4.96193 3.74524C4.76596 3.66163 4.60918 3.60414 4.4916 3.57279C4.37402 3.54143 4.25252 3.52576 4.1271 3.52576Z" fill="#5C5757"/>
<path d="M9.44177 3.47648C8.85909 3.37458 8.56775 3.04274 8.56775 2.48096V1.32475C8.56775 0.820455 8.27118 0.56047 7.67805 0.544793V0C8.15883 0 8.53639 0.113662 8.81075 0.340985C9.08772 0.568309 9.2262 0.881859 9.2262 1.28163V2.48096C9.2262 2.73442 9.30328 2.92124 9.45745 3.04143C9.61161 3.15901 9.85853 3.22042 10.1982 3.22564V3.77828C9.87943 3.77828 9.63774 3.83707 9.47312 3.95465C9.30851 4.06962 9.2262 4.26297 9.2262 4.53471V5.72228C9.2262 6.12206 9.09164 6.433 8.82251 6.6551C8.55599 6.87981 8.17451 6.99477 7.67805 7V6.45129C7.96809 6.44606 8.18888 6.38335 8.34043 6.26316C8.49197 6.14296 8.56775 5.94961 8.56775 5.68309V4.51904C8.56775 4.22116 8.6396 3.99384 8.78331 3.83707C8.92702 3.68029 9.14651 3.57577 9.44177 3.52352V3.47648Z" fill="#5C5757"/>
</svg>
