<svg width="11" height="8" viewBox="0 0 11 8" fill="none" xmlns="http://www.w3.org/2000/svg">
<path d="M1.62262 6.18309C1.62262 6.44961 1.69839 6.64296 1.84994 6.76316C2.00411 6.88335 2.22882 6.94606 2.52408 6.95129V7.5C2.02762 7.49477 1.64352 7.38111 1.37178 7.15901C1.10004 6.93692 0.964166 6.62467 0.964166 6.22228V5.03471C0.964166 4.76297 0.881859 4.56962 0.717245 4.45465C0.552632 4.33707 0.31355 4.27828 0 4.27828V3.72564C0.339679 3.72042 0.585293 3.65771 0.736842 3.53751C0.888391 3.41732 0.964166 3.2318 0.964166 2.98096V1.78163C0.964166 1.37663 1.10526 1.06178 1.38746 0.837066C1.66965 0.612355 2.04853 0.5 2.52408 0.5V1.04479C1.92311 1.06047 1.62262 1.32046 1.62262 1.82475V2.98096C1.62262 3.54274 1.33128 3.87458 0.7486 3.97648V4.02352C1.33128 4.12542 1.62262 4.45726 1.62262 5.01904V6.18309Z" fill="#1481B8"/>
<path d="M4.1271 4.02576C3.98862 4.02576 3.83576 4.07018 3.66853 4.15901C3.50392 4.24524 3.35106 4.3589 3.20997 4.5V3.90817C3.47126 3.62337 3.79003 3.48096 4.16629 3.48096C4.34397 3.48096 4.50597 3.49925 4.6523 3.53583C4.80123 3.57242 4.99197 3.64035 5.22452 3.73964C5.39698 3.8128 5.54722 3.86767 5.67525 3.90426C5.80328 3.93822 5.9287 3.95521 6.05151 3.95521C6.19261 3.95521 6.34677 3.9134 6.514 3.82979C6.68122 3.74617 6.83539 3.6299 6.97648 3.48096V4.06887C6.70997 4.35629 6.39119 4.5 6.02016 4.5C5.83203 4.5 5.65566 4.4791 5.49104 4.43729C5.32643 4.39287 5.15006 4.32885 4.96193 4.24524C4.76596 4.16163 4.60918 4.10414 4.4916 4.07279C4.37402 4.04143 4.25252 4.02576 4.1271 4.02576Z" fill="#1481B8"/>
<path d="M9.44177 3.97648C8.85909 3.87458 8.56775 3.54274 8.56775 2.98096V1.82475C8.56775 1.32046 8.27118 1.06047 7.67805 1.04479V0.5C8.15883 0.5 8.53639 0.613662 8.81075 0.840985C9.08772 1.06831 9.2262 1.38186 9.2262 1.78163V2.98096C9.2262 3.23442 9.30328 3.42124 9.45745 3.54143C9.61161 3.65901 9.85853 3.72042 10.1982 3.72564V4.27828C9.87943 4.27828 9.63774 4.33707 9.47312 4.45465C9.30851 4.56962 9.2262 4.76297 9.2262 5.03471V6.22228C9.2262 6.62206 9.09164 6.933 8.82251 7.1551C8.55599 7.37981 8.17451 7.49477 7.67805 7.5V6.95129C7.96809 6.94606 8.18888 6.88335 8.34043 6.76316C8.49197 6.64296 8.56775 6.44961 8.56775 6.18309V5.01904C8.56775 4.72116 8.6396 4.49384 8.78331 4.33707C8.92702 4.18029 9.14651 4.07577 9.44177 4.02352V3.97648Z" fill="#1481B8"/>
</svg>
