<svg width="16" height="16" viewBox="0 0 16 16" fill="none" xmlns="http://www.w3.org/2000/svg">
<path fill-rule="evenodd" clip-rule="evenodd" d="M10.7671 3.11156C10.0486 2.42305 9.07371 2 8 2C5.79086 2 4 3.79086 4 6V9.87868L6 7.87868V6C6 4.89543 6.89543 4 8 4C8.52142 4 8.99624 4.19954 9.35226 4.52642L10.7671 3.11156ZM12 6.12132L10 8.12132V10C10 11.1046 9.10457 12 8 12C7.47858 12 7.00376 11.8005 6.64774 11.4736L5.23288 12.8884C5.95138 13.577 6.92629 14 8 14C10.2091 14 12 12.2091 12 10V6.12132Z" fill="#999999"/>
<path fill-rule="evenodd" clip-rule="evenodd" d="M13.7071 2.29289C14.0976 2.68342 14.0976 3.31658 13.7071 3.70711L3.70711 13.7071C3.31658 14.0976 2.68342 14.0976 2.29289 13.7071C1.90237 13.3166 1.90237 12.6834 2.29289 12.2929L12.2929 2.29289C12.6834 1.90237 13.3166 1.90237 13.7071 2.29289Z" fill="#999999"/>
</svg>
