<svg width="92" height="127" viewBox="0 0 92 127" fill="none" xmlns="http://www.w3.org/2000/svg">
<path d="M77.7203 126.999L91.999 94.3347V126.999H77.7203Z" fill="#10273D"/>
<path d="M73.3176 115.817L92 94.3347L77.7203 126.999L73.3176 115.817Z" fill="#255372"/>
<path d="M55.2622 69.9643L77.7203 127H38.6196V76.4726L55.2622 69.9643Z" fill="#1D3D56"/>
<path d="M22.4581 69.9643L0 127H39.1027V76.4726L22.4581 69.9643Z" fill="#7C8FA5"/>
<path d="M74.5027 62.8351C74.5027 62.8351 39.5849 77.8004 39.1018 77.8004V51.0905L74.5027 62.8351Z" fill="#10273D"/>
<path d="M3.70178 62.8351C3.70178 62.8351 38.6196 77.8004 39.1027 77.8004V51.0905L3.70178 62.8351Z" fill="#2B5B80"/>
<path d="M71.1229 30.0108L74.5027 62.8351L39.1028 51.0905L57.4459 19.5504L71.1229 30.0108Z" fill="#1D3D56"/>
<path d="M6.59737 30.0097L3.69971 62.8351L39.1026 51.0905L20.2744 19.5504L6.59737 30.0097Z" fill="#7C8FA5"/>
<path d="M57.4459 19.5504L47.5497 12.5519H39.1018H38.6197H30.1718L20.2736 19.5504L39.1028 51.0905L57.4459 19.5504Z" fill="#255372"/>
<path d="M57.4458 19.5514L71.1228 30.0107L76.352 0L57.4458 19.5514Z" fill="#10273D"/>
<path d="M47.5496 12.5518L57.4448 19.5514L76.353 0L47.5496 12.5518Z" fill="#2B5B80"/>
<path d="M20.2745 19.5514L6.59745 30.0107L1.36829 0L20.2745 19.5514Z" fill="#2B5B80"/>
<path d="M30.1707 12.5518L20.2745 19.5514L1.36731 0L30.1707 12.5518Z" fill="#142F4D"/>
</svg>
