<svg width="20" height="20" viewBox="0 0 20 20" fill="none" xmlns="http://www.w3.org/2000/svg">
<path fill-rule="evenodd" clip-rule="evenodd" d="M5.80136 12.7427L4.55136 13.9927C4.40839 14.0221 4.20198 14.0276 4.05136 13.9927L0.0513617 10.2427C0.0167336 10.101 0.0167336 9.8807 0.0513617 9.74268L4.05136 5.99268C4.20198 5.95682 4.40839 5.96498 4.55136 5.99268L5.80136 7.24268C5.83969 7.49048 5.82882 7.70258 5.80136 7.74268L3.30136 9.99268L5.80136 12.2427C5.82882 12.2818 5.83697 12.4939 5.80136 12.7427ZM19.9746 10.2427L15.9746 13.9927C15.824 14.0272 15.6175 14.0217 15.4746 13.9927L14.2246 12.7427C14.1862 12.4939 14.1971 12.2819 14.2246 12.2427L16.7246 9.99268L14.2246 7.74268C14.1971 7.70109 14.189 7.48904 14.2246 7.24268L15.4746 5.99268C15.6203 5.96393 15.8267 5.95849 15.9746 5.99268L19.9746 9.74268C20.0092 9.88409 20.0092 10.1043 19.9746 10.2427Z" fill="#262626"/>
</svg>
