<svg width="15" height="14" viewBox="0 0 15 14" fill="none" xmlns="http://www.w3.org/2000/svg">
<path d="M7.94569 0.773372C7.8604 0.605643 7.68817 0.5 7.5 0.5C7.31183 0.5 7.1396 0.605643 7.05431 0.773372L5.16372 4.49142L0.930174 5.08849C0.740012 5.11531 0.582014 5.24868 0.52365 5.43164C0.465285 5.6146 0.516869 5.81482 0.656374 5.9468L3.71077 8.83651L2.99041 12.913C2.9574 13.0998 3.03292 13.2892 3.18541 13.402C3.3379 13.5148 3.54108 13.5316 3.71004 13.4454L7.5 11.5115L11.29 13.4454C11.4589 13.5316 11.6621 13.5148 11.8146 13.402C11.9671 13.2892 12.0426 13.0998 12.0096 12.913L11.2892 8.83651L14.3436 5.9468C14.4831 5.81482 14.5347 5.6146 14.4763 5.43164C14.418 5.24868 14.26 5.11531 14.0698 5.08849L9.83628 4.49142L7.94569 0.773372Z" fill="#A21AE6" stroke="white" stroke-linejoin="round"/>
</svg>
