<svg width="20" height="16" viewBox="0 0 20 16" fill="none" xmlns="http://www.w3.org/2000/svg">
<path d="M2 0H18C18.5304 0 19.0391 0.210714 19.4142 0.585786C19.7893 0.960859 20 1.46957 20 2V14C20 14.5304 19.7893 15.0391 19.4142 15.4142C19.0391 15.7893 18.5304 16 18 16H2C1.46957 16 0.960859 15.7893 0.585786 15.4142C0.210714 15.0391 0 14.5304 0 14V2C0 1.46957 0.210714 0.960859 0.585786 0.585786C0.960859 0.210714 1.46957 0 2 0ZM14 2V14H18V2H14ZM2 2V14H6V2H2ZM8 2V14H12V2H8Z" fill="#4D4D4D"/>
</svg>
