<svg width="24" height="24" viewBox="0 0 24 24" fill="none" xmlns="http://www.w3.org/2000/svg">
<path fill-rule="evenodd" clip-rule="evenodd" d="M7.02944 0H16.9706L24 7.02944V16.9706L16.9706 24H7.02944L0 16.9706V7.02944L7.02944 0ZM11.9996 18.0933C11.2685 18.0933 10.6608 17.4902 10.6608 16.7646C10.6608 16.0389 11.2685 15.4358 11.9996 15.4358C12.7308 15.4358 13.3384 16.0389 13.3088 16.7989C13.3434 17.4902 12.7011 18.0933 11.9996 18.0933ZM13.1285 11.0449C13.1594 10.5313 13.1902 10.0177 13.2199 9.50282C13.2345 9.17516 13.2577 8.84629 13.2809 8.51622C13.3046 8.1795 13.3284 7.84152 13.3434 7.5023C13.3434 7.25714 13.3137 7.0463 13.2199 6.83546C12.9432 6.23236 12.3059 5.92836 11.6637 6.08036C11.0215 6.26178 10.6263 6.83546 10.6263 7.53172C10.6587 7.9276 10.6868 8.32779 10.7147 8.7242L10.7201 8.80166C10.7646 9.60334 10.8103 10.3977 10.856 11.192C10.9017 11.9863 10.9474 12.7806 10.9918 13.5823C11.0264 14.1266 11.4513 14.5188 11.9996 14.5188C12.548 14.5188 12.9778 14.0972 13.0074 13.5529C13.0074 13.2244 13.0074 12.9204 13.0371 12.587C13.0667 12.0721 13.0976 11.5585 13.1285 11.0449Z" fill="white"/>
</svg>
