<svg width="16" height="16" viewBox="0 0 16 16" fill="none" xmlns="http://www.w3.org/2000/svg">
<path d="M3.9846 2L3.9846 2.46877C3.9846 3.56982 4.74799 4.49545 5.77314 4.74552L5.00414 8.71877H4.92211C3.11285 8.71877 1.66699 10.3886 1.66701 12.1979L1.66699 12.6667H7.53147V14.8097L8.46896 14.8097V12.6667H14.3337L14.3182 12.1979C14.3182 10.3886 12.8876 8.71875 11.0783 8.71875H10.9963L10.2273 4.7455C11.2525 4.49545 12.0159 3.56982 12.0159 2.46874V2.00002L3.9846 2ZM13.3337 11.7292H2.65157C2.86936 10.6607 3.79026 9.65626 4.92209 9.65624H11.0783C12.2102 9.65626 13.1159 10.6607 13.3337 11.7292ZM10.0003 8.66667H6.00033L6.70996 4.93749H9.28025L10.0003 8.66667ZM9.66699 4L6.32326 4C5.71214 4 5.19592 3.48316 5.00244 2.93749L10.998 2.93749C10.8046 3.48316 10.2781 4 9.66699 4Z" fill="#262626"/>
</svg>
