<svg width="16" height="16" viewBox="0 0 16 16" fill="none" xmlns="http://www.w3.org/2000/svg">
<mask id="path-1-outside-1" maskUnits="userSpaceOnUse" x="0.666748" y="1" width="15" height="15" fill="black">
<rect fill="white" x="0.666748" y="1" width="15" height="15"/>
<path d="M3.98436 2L3.98436 2.46877C3.98436 3.56982 4.74774 4.49545 5.77289 4.74552L5.00389 8.71877H4.92187C3.1126 8.71877 1.66675 10.3886 1.66677 12.1979L1.66675 12.6667H7.53123V14.8097L8.46872 14.8097V12.6667H14.3334L14.318 12.1979C14.318 10.3886 12.8874 8.71875 11.0781 8.71875H10.9961L10.2271 4.7455C11.2522 4.49545 12.0156 3.56982 12.0156 2.46874V2.00002L3.98436 2ZM13.3334 11.7292H2.65133C2.86912 10.6607 3.79001 9.65626 4.92185 9.65624H11.0781C12.2099 9.65626 13.1156 10.6607 13.3334 11.7292ZM10.0001 8.66667H6.00008L6.70972 4.93749H9.28L10.0001 8.66667ZM9.66675 4L6.32302 4C5.7119 4 5.19567 3.48316 5.00219 2.93749L10.9978 2.93749C10.8043 3.48316 10.2779 4 9.66675 4Z"/>
</mask>
<path d="M3.98436 2L3.98436 2.46877C3.98436 3.56982 4.74774 4.49545 5.77289 4.74552L5.00389 8.71877H4.92187C3.1126 8.71877 1.66675 10.3886 1.66677 12.1979L1.66675 12.6667H7.53123V14.8097L8.46872 14.8097V12.6667H14.3334L14.318 12.1979C14.318 10.3886 12.8874 8.71875 11.0781 8.71875H10.9961L10.2271 4.7455C11.2522 4.49545 12.0156 3.56982 12.0156 2.46874V2.00002L3.98436 2ZM13.3334 11.7292H2.65133C2.86912 10.6607 3.79001 9.65626 4.92185 9.65624H11.0781C12.2099 9.65626 13.1156 10.6607 13.3334 11.7292ZM10.0001 8.66667H6.00008L6.70972 4.93749H9.28L10.0001 8.66667ZM9.66675 4L6.32302 4C5.7119 4 5.19567 3.48316 5.00219 2.93749L10.9978 2.93749C10.8043 3.48316 10.2779 4 9.66675 4Z" fill="#262626"/>
<path d="M3.98436 2L3.98436 1L2.98436 0.999997L2.98436 2L3.98436 2ZM3.98436 2.46877L4.98436 2.46877V2.46877L3.98436 2.46877ZM5.77289 4.74552L6.75468 4.93554L6.93577 3.99986L6.00988 3.77401L5.77289 4.74552ZM5.00389 8.71877V9.71877H5.82891L5.98567 8.90879L5.00389 8.71877ZM1.66677 12.1979L2.66677 12.198V12.1979L1.66677 12.1979ZM1.66675 12.6667L0.666748 12.6666L0.666701 13.6667H1.66675V12.6667ZM7.53123 12.6667H8.53123V11.6667H7.53123V12.6667ZM7.53123 14.8097H6.53123V15.8097L7.53122 15.8097L7.53123 14.8097ZM8.46872 14.8097L8.46872 15.8097L9.46872 15.8097V14.8097H8.46872ZM8.46872 12.6667V11.6667H7.46872V12.6667H8.46872ZM14.3334 12.6667V13.6667H15.3668L15.3329 12.6338L14.3334 12.6667ZM14.318 12.1979L13.318 12.1979V12.2143L13.3185 12.2308L14.318 12.1979ZM10.9961 8.71875L10.0143 8.90877L10.1711 9.71875H10.9961V8.71875ZM10.2271 4.7455L9.99011 3.77398L9.06419 3.99982L9.24529 4.93551L10.2271 4.7455ZM12.0156 2.46874L11.0156 2.46874V2.46876L12.0156 2.46874ZM12.0156 2.00002L13.0156 2.00002L13.0156 1.00002L12.0156 1.00002L12.0156 2.00002ZM13.3334 11.7292V12.7292H14.5578L14.3133 11.5294L13.3334 11.7292ZM2.65133 11.7292L1.67148 11.5294L1.42693 12.7292H2.65133V11.7292ZM4.92185 9.65624V8.65624H4.92183L4.92185 9.65624ZM11.0781 9.65624L11.0781 8.65624H11.0781V9.65624ZM10.0001 8.66667V9.66667H11.2116L10.9819 8.47708L10.0001 8.66667ZM6.00008 8.66667L5.01771 8.47973L4.79184 9.66667H6.00008V8.66667ZM6.70972 4.93749V3.93749H5.88206L5.72734 4.75055L6.70972 4.93749ZM9.28 4.93749L10.2619 4.7479L10.1054 3.93749H9.28V4.93749ZM9.66675 4V5V4ZM6.32302 4L6.32302 3H6.32302V4ZM5.00219 2.93749V1.93749L3.58661 1.93749L4.05969 3.27168L5.00219 2.93749ZM10.9978 2.93749L11.9403 3.27168L12.4134 1.93749L10.9978 1.93749V2.93749ZM2.98436 2L2.98436 2.46877L4.98436 2.46877L4.98436 2L2.98436 2ZM2.98436 2.46877C2.98436 4.04276 4.07459 5.36056 5.53591 5.71703L6.00988 3.77401C5.4209 3.63033 4.98436 3.09688 4.98436 2.46877L2.98436 2.46877ZM4.79111 4.5555L4.02211 8.52876L5.98567 8.90879L6.75468 4.93554L4.79111 4.5555ZM5.00389 7.71877H4.92187V9.71877H5.00389V7.71877ZM4.92187 7.71877C2.47659 7.71877 0.666742 9.92398 0.66677 12.1979L2.66677 12.1979C2.66675 10.8533 3.74862 9.71877 4.92187 9.71877V7.71877ZM0.66677 12.1979L0.666748 12.6666L2.66675 12.6667L2.66677 12.198L0.66677 12.1979ZM1.66675 13.6667H7.53123V11.6667H1.66675V13.6667ZM6.53123 12.6667V14.8097H8.53123V12.6667H6.53123ZM7.53122 15.8097L8.46872 15.8097L8.46872 13.8097L7.53123 13.8097L7.53122 15.8097ZM9.46872 14.8097V12.6667H7.46872V14.8097H9.46872ZM8.46872 13.6667H14.3334V11.6667H8.46872V13.6667ZM15.3329 12.6338L15.3175 12.165L13.3185 12.2308L13.334 12.6995L15.3329 12.6338ZM15.318 12.1979C15.318 9.93031 13.5292 7.71875 11.0781 7.71875V9.71875C12.2455 9.71875 13.318 10.8469 13.318 12.1979L15.318 12.1979ZM11.0781 7.71875H10.9961V9.71875H11.0781V7.71875ZM11.9779 8.52873L11.2089 4.55548L9.24529 4.93551L10.0143 8.90877L11.9779 8.52873ZM10.464 5.71701C11.9254 5.36057 13.0156 4.04275 13.0156 2.46872L11.0156 2.46876C11.0156 3.09689 10.5791 3.63032 9.99011 3.77398L10.464 5.71701ZM13.0156 2.46875V2.00002L11.0156 2.00002V2.46874L13.0156 2.46875ZM12.0156 1.00002L3.98436 1L3.98435 3L12.0156 3.00002L12.0156 1.00002ZM13.3334 10.7292H2.65133V12.7292H13.3334V10.7292ZM3.63118 11.9289C3.78374 11.1804 4.39977 10.6563 4.92187 10.6562L4.92183 8.65624C3.18026 8.65628 1.95449 10.141 1.67148 11.5294L3.63118 11.9289ZM4.92185 10.6562H11.0781V8.65624H4.92185V10.6562ZM11.0781 10.6562C11.5928 10.6563 12.1992 11.1715 12.3536 11.9289L14.3133 11.5294C14.0321 10.1499 12.827 8.65628 11.0781 8.65624L11.0781 10.6562ZM10.0001 7.66667H6.00008V9.66667H10.0001V7.66667ZM6.98245 8.85361L7.69209 5.12443L5.72734 4.75055L5.01771 8.47973L6.98245 8.85361ZM6.70972 5.93749H9.28V3.93749H6.70972V5.93749ZM8.29814 5.12708L9.01822 8.85626L10.9819 8.47708L10.2619 4.7479L8.29814 5.12708ZM9.66675 3L6.32302 3L6.32302 5L9.66675 5V3ZM6.32302 3C6.30815 3 6.24941 2.99374 6.15791 2.91508C6.06398 2.83433 5.98477 2.71631 5.9447 2.6033L4.05969 3.27168C4.3394 4.06053 5.1439 5 6.32302 5V3ZM5.00219 3.93749L10.9978 3.93749V1.93749L5.00219 1.93749L5.00219 3.93749ZM10.0553 2.6033C10.017 2.71131 9.93814 2.82903 9.84112 2.91153C9.74597 2.99243 9.68321 3 9.66675 3V5C10.8381 5 11.6572 4.07 11.9403 3.27168L10.0553 2.6033Z" fill="white" mask="url(#path-1-outside-1)"/>
</svg>
