<svg width="15" height="15" viewBox="0 0 15 15" fill="none" xmlns="http://www.w3.org/2000/svg">
<path fill-rule="evenodd" clip-rule="evenodd" d="M7 9.5C8.38071 9.5 9.5 8.38071 9.5 7C9.5 5.61929 8.38071 4.5 7 4.5C5.61929 4.5 4.5 5.61929 4.5 7C4.5 8.38071 5.61929 9.5 7 9.5ZM7 11C9.20914 11 11 9.20914 11 7C11 4.79086 9.20914 3 7 3C4.79086 3 3 4.79086 3 7C3 9.20914 4.79086 11 7 11Z" fill="#2662D9"/>
<path fill-rule="evenodd" clip-rule="evenodd" d="M10.9697 12.0303L8.96973 10.0303L10.0304 8.96967L12.0304 10.9697C12.3233 11.2626 12.3233 11.7374 12.0304 12.0303C11.7375 12.3232 11.2626 12.3232 10.9697 12.0303Z" fill="#2662D9"/>
</svg>
 